# xmcd
#
# Track frame offsets:
#	150
#	1977
#	15635
#	33172
#	44797
#	59655
#	75927
#	87730
#	102372
#	121965
#	129215
#	148447
#	171365
#	181312
#	195765
#
# Disc length: 2735 seconds
#
# Revision: 3
# Processed by: cddbd v1.5.2PL0 Copyright (c) Steve Scherf et al.
# Submitted via: audiograbber 1.83.01
#
DISCID=c70aad0f
DTITLE=Jackson, Mahalia - Live at Newport 1958
DYEAR=1958
DGENRE=Gospel
TTITLE0=Introduction (Willis conover)
TTITLE1=An evening prayer
TTITLE2=A city called heaven
TTITLE3=I'm on my way
TTITLE4=It don't cost very much
TTITLE5=Didn't it rain
TTITLE6=He's got the whole world in his hands
TTITLE7=When the saints go marching in
TTITLE8=I'm goin' to live the life I sing about in my song
TTITLE9=Keep your hand on the plow (with Duke Ellington and His Orchestra)
TTITLE10=The Lord's prayer
TTITLE11=Walk over God's heaven
TTITLE12=Joshua fit the battle of Jerico
TTITLE13=Jesus met the woman at the well
TTITLE14=His eye is on the sparrow
EXTD=
EXTT0=
EXTT1=
EXTT2=
EXTT3=
EXTT4=
EXTT5=
EXTT6=
EXTT7=
EXTT8=
EXTT9=
EXTT10=
EXTT11=
EXTT12=
EXTT13=
EXTT14=
PLAYORDER=
